# xmcd CD database file
#
# Track frame offsets:
#	150
#	17415
#	30798
#	50237
#	72516
#	87214
#	101112
#	117943
#	131742
#	148559
#	164968
#
# Disc length: 2411 seconds
#
# Revision: 2
# Processed by: cddbd v1.5.2PL0 Copyright (c) Steve Scherf et al.
# Submitted via: CDex 1.70beta2
#
DISCID=9b09690b
DTITLE=Erin Bode - A Cold December Night
DYEAR=2009
DGENRE=Jazz
TTITLE0=Skating
TTITLE1=See Amid The Winter's Snow
TTITLE2=A Cradle In Bethlehem
TTITLE3=A Cold December Night
TTITLE4=The Holly And The Ivy
TTITLE5=Holy Night, Peaceful Night
TTITLE6=The Star's Song
TTITLE7=The Coventry Carol
TTITLE8=From Heaven Above To Earth I Come
TTITLE9=Bethlehem Down
TTITLE10=In The Bleak Midwinter
EXTD=YEAR: 2009
EXTT0=
EXTT1=
EXTT2=
EXTT3=
EXTT4=
EXTT5=
EXTT6=
EXTT7=
EXTT8=
EXTT9=
EXTT10=
PLAYORDER=
